<svg xmlns="http://www.w3.org/2000/svg" xmlns:xlink="http://www.w3.org/1999/xlink" width="500" zoomAndPan="magnify" viewBox="0 0 375 374.999991" height="500" preserveAspectRatio="xMidYMid meet" version="1.0"><defs><clipPath id="4b4cbcd24f"><path d="M 72 29.660156 L 297 29.660156 L 297 191 L 72 191 Z M 72 29.660156 " clip-rule="nonzero"/></clipPath><clipPath id="3c12f3a675"><path d="M 68 232 L 311 232 L 311 345.410156 L 68 345.410156 Z M 68 232 " clip-rule="nonzero"/></clipPath></defs><g clip-path="url(#4b4cbcd24f)"><path fill="#000000" d="M 221.484375 64.511719 L 224.824219 61.375 C 182.136719 17.789062 104.625 44.265625 104.625 86.449219 C 104.625 107.539062 134.175781 125.003906 163.722656 137.203125 C 182.964844 144.976562 202.664062 151.347656 222.816406 156.316406 C 243.890625 161.980469 262.625 170.621094 277.34375 182.578125 C 251.039062 187.859375 221.046875 190.664062 189.703125 190.664062 C 186.949219 190.664062 184.179688 190.636719 181.402344 190.585938 C 180.972656 189.800781 180.527344 189.023438 180.054688 188.261719 C 179.585938 187.496094 179.097656 186.746094 178.589844 186.011719 C 178.078125 185.273438 177.550781 184.550781 177.003906 183.84375 C 176.457031 183.132812 175.890625 182.441406 175.304688 181.761719 C 174.722656 181.082031 174.121094 180.417969 173.5 179.773438 C 172.878906 179.125 172.242188 178.496094 171.589844 177.882812 C 170.9375 177.273438 170.265625 176.675781 169.582031 176.101562 C 168.898438 175.523438 168.195312 174.964844 167.480469 174.425781 C 166.765625 173.886719 166.039062 173.363281 165.296875 172.863281 C 164.554688 172.363281 163.796875 171.882812 163.03125 171.421875 C 162.261719 170.960938 161.480469 170.523438 160.691406 170.101562 C 159.898438 169.683594 159.097656 169.285156 158.285156 168.910156 C 157.472656 168.535156 156.648438 168.179688 155.816406 167.847656 C 154.984375 167.515625 154.144531 167.203125 153.296875 166.917969 C 152.449219 166.628906 151.59375 166.363281 150.730469 166.121094 C 149.871094 165.878906 149 165.660156 148.128906 165.464844 C 147.253906 165.269531 146.375 165.097656 145.492188 164.949219 C 144.609375 164.800781 143.722656 164.675781 142.832031 164.574219 C 141.941406 164.472656 141.050781 164.394531 140.15625 164.339844 C 139.261719 164.285156 138.367188 164.253906 137.472656 164.25 C 136.578125 164.242188 135.683594 164.257812 134.789062 164.300781 C 133.894531 164.34375 133 164.40625 132.109375 164.496094 C 131.21875 164.585938 130.332031 164.695312 129.445312 164.832031 C 128.558594 164.96875 127.679688 165.128906 126.800781 165.3125 C 125.925781 165.496094 125.054688 165.703125 124.1875 165.929688 C 123.324219 166.160156 122.464844 166.414062 121.613281 166.6875 C 120.757812 166.964844 119.914062 167.261719 119.078125 167.582031 C 118.242188 167.902344 117.414062 168.246094 116.597656 168.609375 C 115.78125 168.972656 114.972656 169.359375 114.175781 169.765625 C 113.375 170.175781 112.589844 170.601562 111.816406 171.054688 C 111.039062 171.503906 110.277344 171.972656 109.527344 172.460938 C 108.78125 172.953125 108.042969 173.460938 107.320312 173.992188 C 87.085938 157.640625 72.855469 137.652344 72.855469 110.925781 C 72.910156 62.667969 119.855469 29.660156 189.707031 29.660156 C 194.890625 29.660156 199.945312 29.835938 204.863281 30.191406 C 205.21875 30.847656 205.65625 31.445312 206.175781 31.984375 C 206.695312 32.523438 207.273438 32.984375 207.917969 33.367188 C 208.558594 33.75 209.242188 34.039062 209.960938 34.238281 C 210.683594 34.433594 211.417969 34.53125 212.164062 34.53125 C 214.128906 34.53125 215.875 33.910156 217.402344 32.675781 C 218.417969 33.835938 219.597656 34.789062 220.941406 35.535156 C 222.289062 36.285156 223.71875 36.789062 225.238281 37.039062 C 225.007812 37.628906 224.8125 38.226562 224.652344 38.835938 C 224.496094 39.449219 224.375 40.066406 224.292969 40.691406 C 224.210938 41.320312 224.164062 41.949219 224.160156 42.578125 C 224.152344 43.210938 224.183594 43.839844 224.253906 44.46875 C 224.324219 45.09375 224.433594 45.714844 224.578125 46.328125 C 224.722656 46.945312 224.90625 47.546875 225.125 48.140625 C 225.34375 48.730469 225.597656 49.308594 225.886719 49.867188 C 226.175781 50.429688 226.5 50.972656 226.855469 51.492188 C 227.210938 52.015625 227.597656 52.511719 228.011719 52.988281 C 228.425781 53.464844 228.871094 53.910156 229.339844 54.332031 C 229.8125 54.753906 230.304688 55.144531 230.824219 55.503906 C 231.339844 55.867188 231.878906 56.195312 232.4375 56.488281 C 232.996094 56.785156 233.570312 57.042969 234.15625 57.269531 C 234.746094 57.496094 235.347656 57.683594 235.960938 57.835938 C 236.574219 57.988281 237.191406 58.105469 237.820312 58.179688 C 238.445312 58.257812 239.074219 58.296875 239.707031 58.296875 C 241.371094 58.296875 242.992188 58.03125 244.570312 57.507812 C 246.148438 56.984375 247.605469 56.226562 248.941406 55.234375 C 249.589844 55.765625 250.277344 56.230469 251.011719 56.632812 C 251.746094 57.035156 252.511719 57.363281 253.308594 57.621094 C 254.105469 57.878906 254.917969 58.0625 255.746094 58.167969 C 256.578125 58.273438 257.410156 58.300781 258.246094 58.253906 C 259.082031 58.203125 259.90625 58.074219 260.714844 57.871094 C 261.527344 57.667969 262.3125 57.386719 263.074219 57.035156 C 263.832031 56.6875 264.550781 56.265625 265.234375 55.78125 C 265.914062 55.292969 266.542969 54.75 267.121094 54.144531 C 266.902344 55.128906 266.789062 56.128906 266.785156 57.136719 C 266.785156 57.957031 266.859375 58.773438 267.007812 59.578125 C 267.152344 60.386719 267.371094 61.175781 267.660156 61.941406 C 267.949219 62.710938 268.300781 63.445312 268.722656 64.152344 C 269.144531 64.855469 269.621094 65.519531 270.160156 66.136719 C 270.699219 66.753906 271.289062 67.320312 271.929688 67.832031 C 272.570312 68.34375 273.253906 68.796875 273.972656 69.1875 C 274.695312 69.578125 275.445312 69.898438 276.226562 70.15625 C 277.007812 70.410156 277.800781 70.59375 278.613281 70.707031 C 278.210938 72.648438 277.960938 74.613281 277.859375 76.59375 C 277.757812 78.574219 277.808594 80.550781 278.011719 82.523438 C 278.214844 84.5 278.566406 86.445312 279.066406 88.363281 C 279.570312 90.285156 280.214844 92.152344 281.003906 93.972656 C 281.796875 95.792969 282.71875 97.542969 283.777344 99.21875 C 284.835938 100.894531 286.019531 102.484375 287.320312 103.980469 C 288.625 105.476562 290.035156 106.863281 291.550781 108.140625 C 293.066406 109.421875 294.671875 110.574219 296.363281 111.605469 C 291.429688 130.339844 275.644531 142.664062 254.417969 142.664062 C 228.175781 142.664062 209.984375 123.617188 209.984375 96.53125 C 210.015625 86.308594 212.726562 73.714844 221.484375 64.511719 Z M 221.484375 64.511719 " fill-opacity="1" fill-rule="nonzero"/></g><path fill="#00bf63" d="M 66.15625 76.238281 C 66.15625 76.757812 66.128906 77.277344 66.078125 77.796875 C 66.027344 78.316406 65.953125 78.828125 65.851562 79.339844 C 65.75 79.847656 65.625 80.355469 65.472656 80.851562 C 65.320312 81.351562 65.144531 81.839844 64.945312 82.320312 C 64.746094 82.800781 64.527344 83.269531 64.28125 83.730469 C 64.035156 84.1875 63.769531 84.632812 63.480469 85.066406 C 63.191406 85.5 62.878906 85.917969 62.550781 86.320312 C 62.21875 86.722656 61.871094 87.105469 61.503906 87.476562 C 61.136719 87.84375 60.75 88.191406 60.347656 88.523438 C 59.945312 88.851562 59.527344 89.160156 59.097656 89.449219 C 58.664062 89.738281 58.21875 90.007812 57.757812 90.253906 C 57.300781 90.5 56.828125 90.71875 56.347656 90.917969 C 55.867188 91.117188 55.378906 91.292969 54.882812 91.445312 C 54.382812 91.597656 53.878906 91.722656 53.371094 91.824219 C 52.859375 91.925781 52.34375 92 51.828125 92.050781 C 51.308594 92.101562 50.789062 92.128906 50.269531 92.128906 C 49.75 92.128906 49.230469 92.101562 48.710938 92.050781 C 48.195312 92 47.679688 91.925781 47.171875 91.824219 C 46.660156 91.722656 46.15625 91.597656 45.660156 91.445312 C 45.160156 91.292969 44.671875 91.117188 44.191406 90.917969 C 43.710938 90.71875 43.238281 90.5 42.78125 90.253906 C 42.324219 90.007812 41.875 89.738281 41.445312 89.449219 C 41.011719 89.160156 40.59375 88.851562 40.191406 88.523438 C 39.789062 88.191406 39.40625 87.84375 39.035156 87.476562 C 38.667969 87.105469 38.320312 86.722656 37.988281 86.320312 C 37.660156 85.917969 37.351562 85.5 37.0625 85.066406 C 36.773438 84.632812 36.503906 84.1875 36.257812 83.730469 C 36.015625 83.269531 35.792969 82.800781 35.59375 82.320312 C 35.394531 81.839844 35.21875 81.351562 35.066406 80.851562 C 34.917969 80.355469 34.789062 79.847656 34.6875 79.339844 C 34.585938 78.828125 34.511719 78.316406 34.460938 77.796875 C 34.410156 77.277344 34.382812 76.757812 34.382812 76.238281 C 34.382812 75.71875 34.410156 75.199219 34.460938 74.683594 C 34.511719 74.164062 34.585938 73.648438 34.6875 73.140625 C 34.789062 72.628906 34.917969 72.125 35.066406 71.625 C 35.21875 71.128906 35.394531 70.640625 35.59375 70.160156 C 35.792969 69.675781 36.015625 69.207031 36.257812 68.75 C 36.503906 68.289062 36.773438 67.84375 37.0625 67.410156 C 37.351562 66.980469 37.660156 66.5625 37.988281 66.160156 C 38.320312 65.757812 38.667969 65.371094 39.035156 65.003906 C 39.40625 64.636719 39.789062 64.285156 40.191406 63.957031 C 40.59375 63.625 41.011719 63.316406 41.445312 63.027344 C 41.875 62.738281 42.324219 62.472656 42.78125 62.226562 C 43.238281 61.980469 43.710938 61.757812 44.191406 61.558594 C 44.671875 61.359375 45.160156 61.183594 45.660156 61.035156 C 46.15625 60.882812 46.660156 60.757812 47.171875 60.65625 C 47.679688 60.554688 48.195312 60.476562 48.710938 60.425781 C 49.230469 60.375 49.75 60.347656 50.269531 60.347656 C 50.789062 60.347656 51.308594 60.375 51.828125 60.425781 C 52.34375 60.476562 52.859375 60.554688 53.371094 60.65625 C 53.878906 60.757812 54.382812 60.882812 54.882812 61.035156 C 55.378906 61.183594 55.867188 61.359375 56.347656 61.558594 C 56.828125 61.757812 57.300781 61.980469 57.757812 62.226562 C 58.21875 62.472656 58.664062 62.738281 59.097656 63.027344 C 59.527344 63.316406 59.945312 63.625 60.347656 63.957031 C 60.75 64.285156 61.136719 64.636719 61.503906 65.003906 C 61.871094 65.371094 62.21875 65.757812 62.550781 66.160156 C 62.878906 66.5625 63.191406 66.980469 63.480469 67.410156 C 63.769531 67.84375 64.035156 68.289062 64.28125 68.75 C 64.527344 69.207031 64.746094 69.675781 64.945312 70.160156 C 65.144531 70.640625 65.320312 71.128906 65.472656 71.625 C 65.625 72.125 65.75 72.628906 65.851562 73.140625 C 65.953125 73.648438 66.027344 74.164062 66.078125 74.683594 C 66.128906 75.199219 66.15625 75.71875 66.15625 76.238281 Z M 66.15625 76.238281 " fill-opacity="1" fill-rule="nonzero"/><path fill="#00bf63" d="M 320.46875 151.839844 C 320.46875 152.472656 320.40625 153.101562 320.285156 153.722656 C 320.160156 154.34375 319.976562 154.945312 319.734375 155.53125 C 319.492188 156.117188 319.195312 156.671875 318.84375 157.199219 C 318.492188 157.726562 318.09375 158.214844 317.644531 158.660156 C 317.195312 159.109375 316.710938 159.507812 316.183594 159.859375 C 315.65625 160.210938 315.101562 160.507812 314.515625 160.75 C 313.929688 160.996094 313.328125 161.175781 312.707031 161.300781 C 312.085938 161.425781 311.457031 161.484375 310.824219 161.484375 C 310.191406 161.484375 309.566406 161.425781 308.945312 161.300781 C 308.324219 161.175781 307.71875 160.996094 307.136719 160.75 C 306.550781 160.507812 305.996094 160.210938 305.46875 159.859375 C 304.941406 159.507812 304.453125 159.109375 304.007812 158.660156 C 303.558594 158.214844 303.160156 157.726562 302.808594 157.199219 C 302.457031 156.671875 302.160156 156.117188 301.917969 155.53125 C 301.675781 154.945312 301.492188 154.34375 301.367188 153.722656 C 301.246094 153.101562 301.183594 152.472656 301.183594 151.839844 C 301.183594 151.207031 301.246094 150.582031 301.367188 149.960938 C 301.492188 149.339844 301.675781 148.734375 301.917969 148.148438 C 302.160156 147.566406 302.457031 147.007812 302.808594 146.480469 C 303.160156 145.957031 303.558594 145.46875 304.007812 145.019531 C 304.453125 144.574219 304.941406 144.171875 305.46875 143.820312 C 305.996094 143.46875 306.550781 143.171875 307.136719 142.929688 C 307.71875 142.6875 308.324219 142.503906 308.945312 142.382812 C 309.566406 142.257812 310.191406 142.195312 310.824219 142.195312 C 311.457031 142.195312 312.085938 142.257812 312.707031 142.382812 C 313.328125 142.503906 313.929688 142.6875 314.515625 142.929688 C 315.101562 143.171875 315.65625 143.46875 316.183594 143.820312 C 316.710938 144.171875 317.195312 144.574219 317.644531 145.019531 C 318.09375 145.46875 318.492188 145.957031 318.84375 146.480469 C 319.195312 147.007812 319.492188 147.566406 319.734375 148.148438 C 319.976562 148.734375 320.160156 149.339844 320.285156 149.960938 C 320.40625 150.582031 320.46875 151.207031 320.46875 151.839844 Z M 320.46875 151.839844 " fill-opacity="1" fill-rule="nonzero"/><path fill="#00bf63" d="M 342.003906 120.039062 C 354.488281 128.5625 361.585938 138.253906 361.585938 148.527344 C 361.585938 180.832031 291.867188 207.351562 202.929688 210.117188 C 202.929688 210.117188 168.601562 211.570312 140.746094 208.324219 C 149.558594 208.503906 157.195312 208.371094 163.738281 208.066406 C 163.398438 206.671875 162.953125 205.308594 162.398438 203.984375 C 161.84375 202.65625 161.191406 201.382812 160.4375 200.160156 C 159.679688 198.9375 158.835938 197.78125 157.898438 196.691406 C 156.960938 195.605469 155.945312 194.59375 154.851562 193.664062 C 153.753906 192.738281 152.59375 191.898438 151.367188 191.152344 C 150.136719 190.40625 148.859375 189.761719 147.53125 189.21875 C 146.199219 188.671875 144.835938 188.238281 143.4375 187.90625 C 142.039062 187.578125 140.625 187.359375 139.191406 187.253906 C 137.761719 187.148438 136.328125 187.152344 134.898438 187.273438 C 133.464844 187.394531 132.050781 187.625 130.65625 187.964844 C 129.261719 188.308594 127.902344 188.757812 126.578125 189.316406 C 125.253906 189.871094 123.980469 190.527344 122.761719 191.285156 C 121.539062 192.042969 120.386719 192.890625 119.300781 193.832031 C 118.210938 194.769531 117.207031 195.789062 116.28125 196.886719 C 115.351562 197.984375 114.519531 199.148438 113.773438 200.378906 C 113.03125 201.609375 112.390625 202.886719 111.847656 204.21875 C 53.597656 194.199219 13.453125 173.042969 13.453125 148.527344 C 13.453125 138.253906 20.503906 128.5625 32.996094 120.039062 C 12.191406 130.921875 0.00390625 144.101562 0.00390625 158.3125 C 0.00390625 185.734375 45.265625 209.304688 110.3125 219.90625 C 117.667969 221.160156 125.871094 222.445312 132.464844 222.796875 C 125.316406 223.25 118.167969 223.207031 111.027344 222.664062 C 111.4375 223.992188 111.949219 225.28125 112.5625 226.53125 C 113.171875 227.78125 113.871094 228.980469 114.664062 230.125 C 115.457031 231.265625 116.332031 232.34375 117.289062 233.355469 C 118.246094 234.363281 119.273438 235.296875 120.371094 236.148438 C 121.472656 237.003906 122.628906 237.765625 123.84375 238.441406 C 125.0625 239.121094 126.320312 239.699219 127.625 240.183594 C 128.929688 240.667969 130.261719 241.050781 131.625 241.332031 C 132.988281 241.613281 134.363281 241.789062 135.753906 241.859375 C 137.144531 241.929688 138.53125 241.894531 139.914062 241.75 C 141.296875 241.609375 142.664062 241.363281 144.007812 241.015625 C 145.355469 240.664062 146.667969 240.214844 147.945312 239.667969 C 149.222656 239.117188 150.453125 238.472656 151.632812 237.734375 C 152.8125 236.996094 153.929688 236.175781 154.984375 235.265625 C 156.039062 234.359375 157.015625 233.375 157.921875 232.316406 C 158.824219 231.261719 159.644531 230.140625 160.378906 228.957031 C 161.109375 227.777344 161.75 226.542969 162.296875 225.265625 C 170.546875 225.660156 178.949219 225.863281 187.503906 225.875 C 291.054688 225.875 374.996094 195.625 374.996094 158.3125 C 374.996094 144.101562 362.808594 130.921875 342.003906 120.039062 Z M 342.003906 120.039062 " fill-opacity="1" fill-rule="nonzero"/><g clip-path="url(#3c12f3a675)"><path fill="#00bf63" d="M 310.730469 253.558594 C 310.730469 309.007812 261.640625 345.417969 191.390625 345.417969 C 138.90625 345.417969 68.671875 325.523438 68.671875 274.726562 C 68.664062 271.921875 68.882812 269.132812 69.332031 266.359375 C 69.777344 263.589844 70.449219 260.875 71.339844 258.210938 C 72.234375 255.550781 73.335938 252.980469 74.648438 250.5 C 75.960938 248.019531 77.46875 245.660156 79.167969 243.425781 C 79.167969 243.425781 79.253906 243.339844 79.386719 243.175781 C 81.132812 240.910156 83.0625 238.804688 85.167969 236.867188 C 86.609375 235.417969 88.238281 233.875 89.9375 232.425781 C 90.269531 233.304688 90.625 234.171875 91.003906 235.03125 C 91.382812 235.890625 91.785156 236.738281 92.210938 237.574219 C 92.636719 238.410156 93.085938 239.234375 93.558594 240.046875 C 94.03125 240.855469 94.523438 241.652344 95.042969 242.4375 C 95.558594 243.222656 96.097656 243.988281 96.65625 244.742188 C 97.214844 245.496094 97.796875 246.234375 98.398438 246.957031 C 98.996094 247.675781 99.617188 248.378906 100.257812 249.066406 C 100.898438 249.753906 101.558594 250.421875 102.234375 251.070312 C 102.914062 251.71875 103.605469 252.351562 104.320312 252.960938 C 105.03125 253.570312 105.761719 254.164062 106.507812 254.734375 C 107.253906 255.300781 108.011719 255.851562 108.789062 256.378906 C 109.566406 256.90625 110.355469 257.414062 111.160156 257.894531 C 111.964844 258.378906 112.78125 258.839844 113.613281 259.277344 C 114.441406 259.714844 115.285156 260.128906 116.136719 260.519531 C 116.992188 260.910156 117.855469 261.277344 118.726562 261.621094 C 119.601562 261.960938 120.484375 262.28125 121.375 262.574219 C 122.269531 262.867188 123.167969 263.136719 124.074219 263.378906 C 124.980469 263.621094 125.890625 263.839844 126.8125 264.03125 C 127.730469 264.222656 128.652344 264.390625 129.582031 264.53125 C 130.507812 264.671875 131.441406 264.785156 132.375 264.875 C 133.308594 264.960938 134.246094 265.023438 135.183594 265.058594 C 136.121094 265.097656 137.058594 265.105469 137.996094 265.089844 C 138.933594 265.074219 139.871094 265.03125 140.808594 264.964844 C 141.742188 264.894531 142.675781 264.800781 143.609375 264.679688 C 144.539062 264.558594 145.464844 264.410156 146.386719 264.238281 C 147.308594 264.066406 148.226562 263.867188 149.136719 263.644531 C 150.050781 263.421875 150.953125 263.171875 151.851562 262.898438 C 152.75 262.625 153.640625 262.324219 154.519531 262 C 155.402344 261.679688 156.273438 261.328125 157.132812 260.957031 C 157.996094 260.585938 158.84375 260.1875 159.683594 259.769531 C 160.523438 259.347656 161.351562 258.90625 162.164062 258.4375 C 162.980469 257.972656 163.78125 257.484375 164.566406 256.972656 C 167.492188 263.867188 168.964844 271.054688 168.984375 278.542969 C 168.984375 294.628906 161.792969 304.785156 149.949219 314.101562 C 203.765625 345.222656 272.933594 338.59375 272.933594 284.144531 C 272.933594 270.636719 256.679688 256.332031 237.003906 243.945312 C 262.15625 241.820312 286.496094 237.996094 308.585938 232.503906 C 310.050781 239.445312 310.765625 246.464844 310.730469 253.558594 Z M 310.730469 253.558594 " fill-opacity="1" fill-rule="nonzero"/></g></svg>